<svg width="20" height="23" viewBox="0 0 20 23" fill="none" xmlns="http://www.w3.org/2000/svg">
<path d="M1 11.1333C1 9.37132 1 8.49028 1.35618 7.71579C1.71236 6.94141 2.38128 6.36807 3.7191 5.22135L5.01684 4.10901C7.43496 2.03634 8.64397 1 10.0842 1C11.5244 1 12.7334 2.03634 15.1515 4.10901L16.4493 5.22135C17.7871 6.36807 18.4561 6.94141 18.8122 7.71579C19.1684 8.49028 19.1684 9.37132 19.1684 11.1333V16.6362C19.1684 19.0833 19.1684 20.3068 18.4082 21.067C17.648 21.8272 16.4245 21.8272 13.9774 21.8272H6.19098C3.74392 21.8272 2.5204 21.8272 1.76021 21.067C1 20.3068 1 19.0833 1 16.6362V11.1333Z" stroke="#C8AD7B" stroke-width="1.5"/>
<path d="M13.4887 20.7865V14.2977C13.4887 13.581 12.9077 13 12.191 13H8.29774C7.58103 13 7 13.581 7 14.2977V20.7865" stroke="#C8AD7B" stroke-width="1.5" stroke-linecap="round" stroke-linejoin="round"/>
</svg>
