<svg width="20" height="20" viewBox="0 0 20 20" fill="none" xmlns="http://www.w3.org/2000/svg">
<path d="M9.9417 9.4C12.2613 9.4 14.1417 7.5196 14.1417 5.2C14.1417 2.8804 12.2613 1 9.9417 1C7.6221 1 5.7417 2.8804 5.7417 5.2C5.7417 7.5196 7.6221 9.4 9.9417 9.4Z" stroke="#C8AD7B" stroke-linecap="round"/>
<path d="M1.36059 15.9375C2.12823 13.1241 5.03931 11.8 7.95563 11.8H11.9276C14.844 11.8 17.7551 13.1241 18.5227 15.9375C18.68 16.5144 18.8058 17.1387 18.8771 17.8018C18.9479 18.4608 18.4044 19 17.7416 19H2.14163C1.4789 19 0.935418 18.4608 1.00622 17.8018C1.07747 17.1387 1.20319 16.5144 1.36059 15.9375Z" stroke="#C8AD7B" stroke-linecap="round"/>
</svg>
