<svg width="19" height="20" viewBox="0 0 19 20" fill="none" xmlns="http://www.w3.org/2000/svg">
<path d="M9.5 19V10.897M9.5 19L2.01699 14.5415C1.51844 14.2445 1.26916 14.0959 1.13458 13.8779C1 13.6597 1 13.4041 1 12.8931V5.83255M9.5 19L16.983 14.5415C17.4815 14.2445 17.7308 14.0959 17.8655 13.8779C18 13.6597 18 13.4041 18 12.8931V5.83255M9.5 10.897L1 5.83255M9.5 10.897L18 5.83255M1 5.83255L8.08839 1.60919C8.77009 1.20306 9.11082 1 9.5 1C9.88918 1 10.2299 1.20306 10.9116 1.60919L18 5.83255" stroke="#C8AD7B" stroke-linejoin="round"/>
</svg>
