<svg width="19" height="19" viewBox="0 0 19 19" fill="none" xmlns="http://www.w3.org/2000/svg">
<path d="M9.35488 0C4.1871 0 0 4.18994 0 9.35488C0 14.5198 4.18994 18.7098 9.35488 18.7098C14.5227 18.7098 18.7098 14.5198 18.7098 9.35488C18.7098 4.18994 14.5198 0 9.35488 0ZM9.35488 16.6347C5.34118 16.6347 2.07792 13.3714 2.07792 9.35773C2.07792 5.34402 5.34118 2.08076 9.35488 2.08076C13.3686 2.08076 16.6319 5.34402 16.6319 9.35773C16.6319 13.3714 13.3657 16.6347 9.35488 16.6347Z" fill="#EBCFA5"/>
<path d="M10.3981 5.19336H8.31738V9.78126L11.7427 13.2066L13.2123 11.7369L10.3981 8.92281V5.19336Z" fill="#EBCFA5"/>
</svg>
