<svg width="26" height="27" viewBox="0 0 26 27" fill="none" xmlns="http://www.w3.org/2000/svg">
<path d="M14.0588 2.45098H7.96471C5.52683 2.45098 4.30789 2.45098 3.37675 2.92542C2.55769 3.34275 1.89177 4.00867 1.47444 4.82773C1 5.75887 1 6.97781 1 9.41569V18.702C1 21.1399 1 22.3587 1.47444 23.29C1.89177 24.1091 2.55769 24.7749 3.37675 25.1922C4.30789 25.6667 5.52683 25.6667 7.96471 25.6667H17.251C19.6889 25.6667 20.9078 25.6667 21.839 25.1922C22.6581 24.7749 23.3239 24.1091 23.7412 23.29C24.2157 22.3587 24.2157 21.1399 24.2157 18.702V12.6079" stroke="#452F04" stroke-width="2" stroke-linecap="round" stroke-linejoin="round"/>
<path d="M1 19.8628L7.2289 13.6338C7.79556 13.0672 8.71426 13.0672 9.28091 13.6338L14.0588 18.4118M14.0588 18.4118L18.1113 14.3593C18.6779 13.7927 19.5966 13.7927 20.1633 14.3593L24.2157 18.4118M14.0588 18.4118L17.3235 21.6765" stroke="#452F04" stroke-width="2" stroke-linecap="round" stroke-linejoin="round"/>
<path d="M21.3136 8.25491V1M21.3136 1L18.4116 3.90196M21.3136 1L24.2155 3.90196" stroke="#452F04" stroke-width="2" stroke-linecap="round" stroke-linejoin="round"/>
</svg>
