<svg width="23" height="19" viewBox="0 0 23 19" fill="none" xmlns="http://www.w3.org/2000/svg">
<path d="M5.37646 5.20795H9.58439" stroke="#C8AD7B" stroke-linecap="round" stroke-linejoin="round"/>
<path d="M20.9736 6.38611H18.2202C16.3324 6.38611 14.802 7.81786 14.802 9.58413C14.802 11.3504 16.3324 12.7821 18.2202 12.7821H20.9736C21.0618 12.7821 21.1058 12.7821 21.1431 12.7799C21.7136 12.7448 22.1681 12.3197 22.2055 11.7859C22.2079 11.751 22.2079 11.7097 22.2079 11.6273V7.54091C22.2079 7.45851 22.2079 7.41721 22.2055 7.3824C22.1681 6.84858 21.7136 6.42338 21.1431 6.38839C21.1058 6.38611 21.0618 6.38611 20.9736 6.38611Z" stroke="#C8AD7B"/>
<path d="M21.198 6.3125C21.1153 4.32318 20.8483 3.10348 19.9875 2.24479C18.7399 1 16.7316 1 12.7152 1H9.52012C5.5037 1 3.49549 1 2.24774 2.24479C1 3.4896 1 5.49306 1 9.5C1 13.5069 1 15.5105 2.24774 16.7552C3.49549 18 5.5037 18 9.52012 18H12.7152C16.7316 18 18.7399 18 19.9875 16.7552C20.8483 15.8966 21.1153 14.6768 21.198 12.6875" stroke="#C8AD7B"/>
</svg>
