<svg width="20" height="20" viewBox="0 0 20 20" fill="none" xmlns="http://www.w3.org/2000/svg">
<path d="M1 5C1 3.11438 1 2.17157 1.58579 1.58579C2.17157 1 3.11438 1 5 1H15C16.8856 1 17.8284 1 18.4142 1.58579C19 2.17157 19 3.11438 19 5V15C19 16.8856 19 17.8284 18.4142 18.4142C17.8284 19 16.8856 19 15 19H5C3.11438 19 2.17157 19 1.58579 18.4142C1 17.8284 1 16.8856 1 15V5Z" stroke="#C8AD7B"/>
<path d="M1 10C1 10.9414 1 11.4121 1.15224 11.7834C1.35523 12.2784 1.74458 12.6718 2.23463 12.8769C2.60218 13.0306 3.06812 13.0306 4 13.0306H4.67544C5.25646 13.0306 5.54696 13.0306 5.77888 13.1658C5.83745 13.1998 5.89245 13.2399 5.94303 13.2853C6.14326 13.4648 6.23513 13.7432 6.41886 14.3L6.54415 14.6798C6.76416 15.3465 6.87416 15.6799 7.13605 15.8705C7.39794 16.0612 7.7458 16.0612 8.4415 16.0612H11.5585C12.2542 16.0612 12.6021 16.0612 12.864 15.8705C13.1258 15.6799 13.2358 15.3465 13.4558 14.6798L13.5811 14.3C13.7649 13.7432 13.8567 13.4648 14.057 13.2853C14.1075 13.2399 14.1625 13.1998 14.2211 13.1658C14.453 13.0306 14.7435 13.0306 15.3246 13.0306H16C16.9319 13.0306 17.3978 13.0306 17.7654 12.8769C18.2554 12.6718 18.6448 12.2784 18.8478 11.7834C19 11.4121 19 10.9414 19 10" stroke="#C8AD7B"/>
<path d="M7.42871 8.4256L10.0001 10.9183M10.0001 10.9183L12.5716 8.4256M10.0001 10.9183V3.93872" stroke="#C8AD7B"/>
</svg>
